<svg xmlns="http://www.w3.org/2000/svg" width="256" height="256"><path fill="#1976D2" fill-opacity=".016" fill-rule="evenodd" d="M0 128.004v128.004l128.25-.254 128.25-.254.254-127.75L257.008 0H0zm.485.496c0 70.4.119 99.053.265 63.672s.146-92.98 0-128S.485 58.1.485 128.5"/><path fill="#1976D2" fill-opacity=".155" fill-rule="evenodd" d="m124.659 59.679-2.826 4.679 2.287 4.071c1.258 2.239 12.989 22.521 26.07 45.071l23.782 41-4.101.313c-2.255.172-4.611.108-5.235-.143s-11.486-18.484-24.136-40.518-23.299-40.082-23.665-40.107-1.853 2.082-3.306 4.683c-2.154 3.852-2.447 5.155-1.589 7.041.58 1.272 9.399 16.706 19.598 34.297s18.798 32.647 19.11 33.459c.439 1.145-.309 1.475-3.35 1.475-2.154 0-4.634-.562-5.512-1.25s-9.119-14.3-18.315-30.25-17.054-29.367-17.462-29.816c-.785-.865-6.009 7.309-6.009 9.403 0 1.369 32.466 58.396 34.821 61.163 1.352 1.589 4.054 1.75 29.441 1.75 25.628 0 27.899-.138 27.315-1.659C190.393 161.255 128.696 55 128.088 55c-.331 0-1.874 2.106-3.429 4.679M80.25 136.362C71.313 151.943 64 164.985 64 165.345S78.85 166 97 166s32.996-.338 32.991-.75-1.359-3.103-3.009-5.979l-2.999-5.23-19.963-.27-19.963-.271 9.472-16.713c5.209-9.192 9.471-17.226 9.471-17.853 0-1.346-5.273-10.939-6-10.916-.275.009-7.812 12.764-16.75 28.344"/><path fill="#1976D2" fill-opacity=".75" fill-rule="evenodd" d="m124.869 59.802-2.631 4.773 25.496 43.962c14.023 24.18 25.718 44.526 25.988 45.213.357.907-.978 1.244-4.865 1.229l-5.357-.021-23-39.958c-12.65-21.977-23.295-39.967-23.655-39.979s-1.824 1.974-3.253 4.413l-2.599 4.433 18.127 31.317a48058 48058 0 0 0 20.598 35.566l2.472 4.25h-10.908l-17.439-30.117c-9.591-16.565-17.85-30.118-18.354-30.119s-1.987 1.964-3.297 4.367l-2.381 4.369 17.754 30.75L135.32 165h56.565l-9.418-16.25c-5.18-8.937-19.442-33.674-31.693-54.97S128.275 55.054 128 55.045s-1.684 2.132-3.131 4.757M90.831 118.75a12963 12963 0 0 1-16.15 28L64.127 165h65.815l-2.79-4.75-2.789-4.75-20.608-.5-20.608-.5 9.894-17.5c5.442-9.625 9.909-17.819 9.927-18.209.045-1.002-5.338-9.791-5.998-9.791-.299 0-3.062 4.388-6.139 9.75"/><path fill="#1976D2" fill-opacity=".962" fill-rule="evenodd" d="m125.087 60.34-2.371 4.341 24.258 41.909c13.343 23.051 25.143 43.373 26.224 45.16l1.965 3.25h-11.945l-19.803-34.25a27102 27102 0 0 0-23.213-40.097l-3.411-5.846-2.364 3.846c-1.301 2.116-2.379 4.381-2.396 5.034S121 100.411 132 119.401s20 34.79 20 35.112-2.57.452-5.711.287l-5.712-.3-16.834-29c-9.258-15.95-17.18-29.583-17.604-30.296-.527-.888-1.582.217-3.341 3.5l-2.571 4.796 17.65 30.5 17.651 30.5 27.825.266c15.709.15 27.677-.117 27.486-.613-.886-2.298-62.405-108.137-62.86-108.144-.286-.005-1.588 1.944-2.892 4.331m-29.38 50.797C93.016 115.412 65 164.189 65 164.599c0 .221 14.4.401 32 .401s32-.168 32-.374-1.163-2.456-2.585-5L123.829 155h-20.414C92.187 155 83 154.75 83 154.445s3.758-7.168 8.351-15.25c12.782-22.493 11.898-19.877 8.636-25.558l-2.792-4.864z"/></svg>