<svg xmlns="http://www.w3.org/2000/svg" width="256" height="256"><path fill="#1976D2" fill-opacity=".016" fill-rule="evenodd" d="M0 128.004v128.004l128.25-.254 128.25-.254.254-127.75L257.008 0H0zm.485.496c0 70.4.119 99.053.265 63.672s.146-92.98 0-128S.485 58.1.485 128.5"/><path fill="#1976D2" fill-opacity=".179" fill-rule="evenodd" d="M113 66.571C84.751 73.964 65 99.24 65 128c0 34.759 28.241 63 63 63s63-28.241 63-63c0-29.066-19.839-54.239-48.46-61.49-7.419-1.88-22.242-1.849-29.54.061m.275 6.968c-9.326 2.512-17.365 7.325-24.805 14.85C76.95 100.041 72 111.945 72 128s4.95 27.959 16.47 39.611C99.705 178.975 111.826 184 128 184s28.295-5.025 39.53-16.389c7.67-7.757 12.547-15.969 14.939-25.153 1.947-7.475 1.967-21.363.042-28.755-4.979-19.113-21.04-35.22-40.063-40.175-7.256-1.89-22.137-1.884-29.173.011M82.362 100.5c-1.527 3.979-.028 4.437 15.469 4.724l14.915.276-15.355 22c-8.445 12.1-15.574 22.563-15.842 23.25-.786 2.02.509 4.227 2.811 4.793 1.177.29 10.015.399 19.64.242l17.5-.285.337-2.387c.186-1.313-.264-2.768-1-3.235-.735-.466-7.524-.854-15.087-.863-7.562-.008-13.75-.246-13.75-.528s6.776-10.214 15.059-22.071 15.307-22.206 15.611-23c.305-.793-.002-2.111-.681-2.929-1.842-2.22-38.775-2.208-39.627.013m50.673.434c-.633 1.183-1.035 11.499-1.035 26.566 0 25.138.452 28.5 3.835 28.5 3.563 0 4.165-2.052 4.165-14.2V130h9.389c7.472 0 9.82.357 11.5 1.75 2.256 1.871 4.111 9.404 4.111 16.695 0 5.655 1.849 8.061 5.492 7.146l2.802-.703-.607-9.194c-.748-11.315-2.094-15.363-5.869-17.659l-2.922-1.776 3.601-2.125c9.934-5.861 7.26-20.885-4.288-24.093-2.04-.566-9.431-1.032-16.424-1.035-11.55-.005-12.809.171-13.75 1.928M140 114.65v9.649l9.107-.646c5.009-.355 10.292-1.214 11.741-1.909 3.659-1.753 5.609-6.145 4.491-10.112-1.348-4.781-5.97-6.629-16.589-6.63L140 105z"/><path fill="#1976D2" fill-opacity=".35" fill-rule="evenodd" d="M115.5 66.409c-13.436 3.1-21.753 7.718-31.563 17.528-8.36 8.36-11.805 13.854-15.716 25.063-2.236 6.408-2.616 9.174-2.616 19s.38 12.592 2.616 19c3.911 11.209 7.356 16.703 15.716 25.063S97.791 183.868 109 187.779c6.408 2.236 9.174 2.616 19 2.616s12.592-.38 19-2.616c11.209-3.911 16.703-7.356 25.063-15.716s11.805-13.854 15.716-25.063c2.236-6.408 2.616-9.174 2.616-19 0-9.978-.366-12.557-2.771-19.49-1.524-4.395-4.287-10.47-6.139-13.5-4.096-6.704-14.202-16.739-20.985-20.841-12.407-7.502-31.698-10.829-45-7.76m.5 6.151c-21.614 4.659-38.919 22.141-43.496 43.94-1.853 8.826-1.853 14.174 0 23 4.627 22.038 21.958 39.369 43.996 43.996 12.979 2.725 24.752 1.112 37.426-5.125 18.029-8.872 31.039-29.986 31.039-50.371 0-14.047-6.637-29.741-16.931-40.034C154.294 74.225 134.906 68.485 116 72.56m-33.63 27.918c-1.539 4.01-.063 4.458 15.637 4.746l15.089.276-15.548 22.401C88.997 140.221 82 151.118 82 152.116c0 3.248 3.407 3.884 20.812 3.884 13.776 0 17.174-.278 18.177-1.487.679-.818.974-2.168.654-3-.482-1.258-3.117-1.513-15.612-1.513-8.267 0-15.031-.249-15.031-.553s7.008-10.642 15.573-22.973c11.054-15.913 15.479-23.08 15.25-24.697-.322-2.269-.394-2.278-19.596-2.549-16.5-.232-19.357-.052-19.857 1.25m51.88-.366c-1.956 2.015-1.782 53.201.186 54.835 1.066.885 1.968.907 3.5.087 1.916-1.025 2.064-1.999 2.064-13.569V129l7.25.006c8.712.006 14.374 1.423 15.716 3.931.545 1.018 1.461 6.06 2.036 11.206 1.127 10.096 2.596 12.677 6.136 10.783 2.107-1.127 2.234-3.088.877-13.528-1.201-9.24-2.55-11.999-6.674-13.643l-3.385-1.351 4.037-1.781c9.758-4.305 9.563-18.085-.331-23.343-4.191-2.227-29.471-3.167-31.412-1.168m5.75 14.507v9.62l9.25-.46c10.262-.511 13.985-1.805 15.64-5.436 1.857-4.077 1.294-7.313-1.813-10.42-2.844-2.844-3.196-2.923-13-2.923H140z"/><path fill="#1976D2" fill-opacity=".291" fill-rule="evenodd" d="M112 67.583c-18.728 4.94-34.925 19.458-42.001 37.644-13.521 34.753 6.537 74.08 42.461 83.251 7.723 1.972 23.436 1.959 31.08-.025 21.958-5.7 39.083-22.848 44.965-45.026 2.025-7.632 2.037-23.126.025-30.927-5.589-21.673-23.456-39.541-44.99-44.991-7.513-1.902-24.2-1.863-31.54.074m2 5c-10.265 2.708-18.021 7.266-26.086 15.331-22.862 22.862-22.862 57.31 0 80.172 17.994 17.994 42.745 22.012 66.086 10.728 8.837-4.272 20.542-15.977 24.814-24.814 11.284-23.341 7.266-48.092-10.728-66.086-8.204-8.204-15.924-12.681-26.546-15.392-7.398-1.889-20.258-1.861-27.54.061M83 100.5c-.993 1.197-.993 1.803 0 3 1.001 1.206 4.062 1.5 15.622 1.5 7.908 0 14.378.285 14.378.633s-7.004 10.716-15.565 23.04c-8.73 12.567-15.422 23.159-15.238 24.118.294 1.529 2.326 1.738 19.243 1.982 10.403.15 19.3-.113 19.77-.583.471-.471.572-1.595.225-2.498-.54-1.407-2.826-1.682-15.951-1.917l-15.321-.275 15.919-22.932C114.837 113.955 122 103.059 122 102.353c0-2.679-4.18-3.353-20.812-3.353-13.841 0-17.171.275-18.188 1.5m51.733-.348c-1.624 1.238-1.746 3.5-1.5 27.848l.267 26.5 2.72.313 2.719.314.281-12.814.28-12.813h10.225c13.089 0 13.819.596 15.342 12.52 1.648 12.901 1.675 12.98 4.345 12.98 3.2 0 3.422-1.059 2.398-11.438-1.055-10.697-2.265-13.576-6.538-15.562-3.663-1.702-4.22-3-1.288-3 3.472 0 8.081-5.063 8.681-9.536.862-6.43-1.648-11.127-7.279-13.617-6.027-2.667-27.802-3.871-30.653-1.695m4.934 4.515c-.367.366-.667 4.866-.667 10V124h9.032c13.541 0 17.968-2.516 17.968-10.212 0-4.523-2.31-7.502-6.779-8.744-4.128-1.146-18.508-1.424-19.554-.377"/></svg>