<svg xmlns="http://www.w3.org/2000/svg" width="256" height="256"><path fill="#1976D2" fill-opacity=".016" fill-rule="evenodd" d="M0 128.004v128.004l128.25-.254 128.25-.254.254-127.75L257.008 0H0zm.485.496c0 70.4.119 99.053.265 63.672s.146-92.98 0-128S.485 58.1.485 128.5"/><path fill="#1976D2" fill-opacity=".41" fill-rule="evenodd" d="m121.849 28.657-5.652 9.616 4.792 8.113C139.721 78.102 221 216.23 221.002 216.35c.001.083-4.935-.075-10.969-.35l-10.972-.5-46.148-78.5c-25.381-43.175-46.495-78.878-46.919-79.339C105.363 56.975 94 74.718 94 76.388c0 .399 30.15 51.77 77.097 131.362l4.867 8.25-10.732-.011-10.732-.011-35.5-60.452c-19.525-33.249-35.725-60.46-36-60.47s-2.138 2.786-4.139 6.213-4.557 7.806-5.679 9.731l-2.039 3.5 35.736 61 35.737 61h56.859c47.636 0 56.933-.225 57.321-1.389.255-.764.035-1.124-.489-.801-.713.441-90.054-150.039-123.762-208.455-2.176-3.77-4.201-6.846-4.5-6.835s-3.088 4.348-6.196 9.637M33.658 178.525C16.145 208.479 1.58 233.89 1.291 234.994.77 236.987 1.192 237 66.467 237c36.135 0 65.55-.367 65.366-.815s-2.808-5.164-5.833-10.479l-5.5-9.664-41.197-.021L38.105 216l19.591-34.189c10.775-18.804 19.79-34.954 20.034-35.888.398-1.519-10.503-21.825-11.73-21.851-.275-.006-14.829 24.498-32.342 54.453"/><path fill="#1976D2" fill-opacity=".71" fill-rule="evenodd" d="M122.224 28.807C119.351 33.66 117 37.926 117 38.285c0 .36 15.58 27.106 34.622 59.435s42.213 71.668 51.49 87.421 17.145 29.365 17.484 30.25c.544 1.416-.642 1.609-9.867 1.609-8.026 0-10.771-.346-11.71-1.477-.674-.812-21.815-36.474-46.979-79.25C126.875 93.498 105.916 58.5 105.465 58.5c-.45 0-3.189 4.038-6.086 8.973l-5.266 8.973 1.83 3.027c9.487 15.685 79.103 134.48 79.661 135.935.702 1.831.287 1.88-10.186 1.22-7.29-.46-11.25-1.135-11.918-2.032-.55-.738-16.525-27.723-35.5-59.965S83.261 96.007 82.969 96.004c-.292-.002-2.94 4.065-5.884 9.038-4.098 6.921-5.146 9.484-4.469 10.925.486 1.035 16.409 28.447 35.384 60.915l34.5 59.033 56.357.043c44.702.033 56.252-.217 55.851-1.208-1.198-2.961-125.815-214.275-126.501-214.509-.417-.142-3.11 3.713-5.983 8.566M32.814 180.75.128 236.5l32.936.263c18.115.145 47.768.145 65.897 0l32.961-.263-5.872-10-5.871-10-41.109-.5-41.108-.5 20.019-34.893C68.991 161.416 78 145.476 78 145.183c0-.884-11.462-20.146-12-20.165-.275-.01-15.209 25.07-33.186 55.732"/><path fill="#1976D2" fill-opacity=".953" fill-rule="evenodd" d="M126.704 22.121c-.831 1.309-3.376 5.459-5.654 9.223l-4.143 6.844 50.735 86.156c27.905 47.386 51.596 87.619 52.646 89.406l1.91 3.25h-23.016l-44.257-75.25c-24.342-41.388-45.472-77.21-46.956-79.605l-2.698-4.356-5.23 9.139c-2.876 5.026-5.003 9.728-4.727 10.448s17.564 30.292 38.418 65.716c20.854 35.425 39.163 66.545 40.687 69.158l2.771 4.75h-22.801l-33.381-56.75c-18.36-31.212-34.453-58.476-35.762-60.586l-2.379-3.836-5.422 9.175c-4.693 7.941-5.267 9.464-4.273 11.335 2.478 4.666 69.051 118.208 69.726 118.92.395.418 25.775.643 56.398.5l55.679-.258L195.922 135a524094 524094 0 0 1-63.38-107.879c-4.312-7.351-4.333-7.37-5.838-5M33.162 180.75 1.079 235.5l64.71.571c35.591.314 64.877.447 65.081.296.203-.15-2.075-4.457-5.064-9.57l-5.434-9.297-40.936-.834c-22.515-.458-41.097-.994-41.293-1.19-.197-.196 8.681-16.093 19.728-35.326l20.086-34.969-5.634-9.59c-3.099-5.275-5.959-9.591-6.356-9.591-.396 0-15.159 24.637-32.805 54.75"/></svg>