<svg xmlns="http://www.w3.org/2000/svg" width="256" height="256"><path fill="#1976D2" fill-opacity=".016" fill-rule="evenodd" d="M0 128.004v128.004l128.25-.254 128.25-.254.254-127.75L257.008 0H0zm.485.496c0 70.4.119 99.053.265 63.672s.146-92.98 0-128S.485 58.1.485 128.5"/><path fill="#1976D2" fill-opacity=".171" fill-rule="evenodd" d="M123.861 23.269a4152 4152 0 0 1-5.705 9.737l-2.065 3.505 52.412 90.495 52.412 90.494-5.707.321c-3.14.176-8.021.037-10.847-.309l-5.139-.628-45.78-79.192c-25.179-43.556-46.338-79.81-47.02-80.566-1.36-1.505-2.794.381-9.411 12.383l-3.313 6.009 41.121 70.938c22.617 39.015 41.022 71.032 40.901 71.149s-4.988-.032-10.816-.332l-10.597-.545-33.346-57.614c-18.341-31.688-34.421-59.35-35.734-61.471l-2.387-3.857-5.891 10.136-5.89 10.137 35.854 62.221 35.854 62.22h56.783c49.598 0 56.843-.19 57.254-1.5.258-.825.119-1.173-.31-.774-.429.4-15.019-23.9-32.422-54A1023467 1023467 0 0 1 160.495 72.25c-17.564-30.388-32.174-55.241-32.465-55.231-.292.011-2.168 2.823-4.169 6.25M33.244 179.902C15.51 210.648 1 236.523 1 237.402 1 238.85 7.154 239 66.5 239c36.025 0 65.489-.338 65.476-.75-.012-.412-2.621-5.25-5.797-10.75l-5.774-10-40.805-.261c-32.55-.209-40.706-.519-40.317-1.535.269-.7 9.123-16.558 19.676-35.239s19.266-34.28 19.364-34.664c.216-.854-11.618-21.767-12.329-21.787-.279-.008-15.016 25.142-32.75 55.888"/><path fill="#1976D2" fill-opacity=".567" fill-rule="evenodd" d="M122.487 26.392c-3.494 5.856-5.475 10.197-5.099 11.176.338.881 23.789 41.607 52.113 90.502C197.826 176.965 221 217.202 221 217.485s-4.849.515-10.776.515h-10.777l-46.386-80.25c-25.512-44.138-46.699-80.614-47.083-81.06-.383-.445-3.242 3.56-6.352 8.9l-5.655 9.71 41.015 70.784C157.544 185.016 176 217.124 176 217.435s-4.699.565-10.443.565c-9.202 0-10.605-.231-11.802-1.94-.748-1.067-16.861-28.733-35.807-61.481-18.946-32.747-34.691-59.549-34.988-59.56-.802-.028-10.97 18.006-10.901 19.337.033.629 15.914 28.594 35.293 62.144l35.233 61 56.399.258c41.661.191 56.676-.043 57.458-.896.752-.822.729-.971-.081-.518-.702.393-3.599-3.673-7.556-10.604-3.53-6.182-28.416-49.265-55.303-95.74s-52.578-90.954-57.093-98.841l-8.208-14.341zM33.711 179.76c-17.374 30.118-31.878 55.511-32.23 56.428-.593 1.545 4.147 1.693 64.19 2 35.656.182 65.134.208 65.507.057.373-.15-1.877-4.763-5-10.249l-5.678-9.975-8-.151c-4.4-.083-22.927-.425-41.172-.76l-33.172-.61 16.984-30c9.341-16.5 18.379-32.532 20.085-35.628l3.102-5.627-5.855-10.123C69.252 129.555 66.321 125 65.959 125s-14.874 24.642-32.248 54.76"/><path fill="#1976D2" fill-opacity=".978" fill-rule="evenodd" d="M125.72 21.656c-1.334 2.114-3.849 6.369-5.59 9.456l-3.165 5.612 50.61 87.388c27.835 48.063 51.514 88.865 52.619 90.671l2.009 3.282-11.714-.282-11.715-.283-46.137-79.667c-25.375-43.817-46.43-79.96-46.789-80.318-.981-.981-11.04 16.643-10.556 18.494.333 1.272 72.1 125.894 79.898 138.741l1.973 3.25h-22.925l-35.344-61c-19.44-33.55-35.637-61-35.995-61s-2.992 4.057-5.854 9.016l-5.204 9.016 35.709 61.984L143.258 238h55.871c30.729 0 55.871-.217 55.871-.482s-12.305-21.752-27.343-47.75A199429 199429 0 0 1 164.512 80.5c-19.691-34.1-35.929-62.155-36.085-62.344s-1.374 1.385-2.707 3.5M33.5 180.668C15.9 211.25 1.35 236.661 1.167 237.136c-.185.48 28.604.864 64.75.864 35.796 0 65.083-.191 65.083-.424 0-.234-2.426-4.621-5.39-9.75l-5.39-9.326-41.11-.261c-25.523-.162-41.11-.627-41.11-1.225 0-.53 8.85-16.592 19.667-35.694 10.816-19.102 19.666-35.223 19.666-35.823 0-1.309-10.616-20.458-11.333-20.443-.275.006-14.9 25.032-32.5 55.614"/></svg>