<svg version="1.1" viewBox="0.0 0.0 511.1916010498688 514.4278215223097" fill="none" stroke="none" stroke-linecap="square" stroke-miterlimit="10" xmlns:xlink="http://www.w3.org/1999/xlink" xmlns="http://www.w3.org/2000/svg"><clipPath id="p.0"><path d="m0 0l511.1916 0l0 514.4278l-511.1916 0l0 -514.4278z" clip-rule="nonzero"/></clipPath><g clip-path="url(#p.0)"><path fill="#000000" fill-opacity="0.0" d="m0 0l511.1916 0l0 514.4278l-511.1916 0z" fill-rule="evenodd"/><path fill="#000000" fill-opacity="0.0" d="m16.0 255.88977l0 0c0 -132.48746 107.402306 -239.88977 239.88977 -239.88977l0 0c63.62271 0 124.63962 25.274029 169.62769 70.262085c44.988037 44.988052 70.262085 106.00496 70.262085 169.62769l0 0c0 132.48746 -107.40231 239.88977 -239.88977 239.88977l0 0c-132.48746 0 -239.88977 -107.40231 -239.88977 -239.88977z" fill-rule="evenodd"/><path stroke="#097a34" stroke-width="24.0" stroke-linejoin="round" stroke-linecap="butt" d="m16.0 255.88977l0 0c0 -132.48746 107.402306 -239.88977 239.88977 -239.88977l0 0c63.62271 0 124.63962 25.274029 169.62769 70.262085c44.988037 44.988052 70.262085 106.00496 70.262085 169.62769l0 0c0 132.48746 -107.40231 239.88977 -239.88977 239.88977l0 0c-132.48746 0 -239.88977 -107.40231 -239.88977 -239.88977z" fill-rule="evenodd"/><path fill="#000000" fill-opacity="0.0" d="m20.85308 149.39453l479.7795 0l0 174.51968l-479.7795 0z" fill-rule="evenodd"/><path fill="#097a34" d="m88.18627 366.2544q-7.859375 0 -12.40625 -3.3125q-4.96875 -4.96875 -4.96875 -10.34375q0 -5.375 2.890625 -10.34375l124.14062 -178.34375l-114.20312 0q-5.375 0 -8.484375 -3.71875q-3.109375 -3.734375 -3.109375 -8.078125q0 -4.34375 2.890625 -8.0625q2.90625 -3.734375 8.703125 -3.734375l134.89062 0q6.625 0 10.765625 3.734375q4.140625 3.71875 4.140625 7.859375q0 7.453125 -3.734375 12.40625l-124.54687 178.76562l115.03124 0q6.625 0 9.109375 3.734375q2.484375 3.71875 2.484375 8.265625q0 4.546875 -2.90625 7.859375q-2.890625 3.3125 -8.6875 3.3125l-132.0 0zm186.63037 -211.85938q0 -8.28125 9.09375 -12.828125q2.484375 -1.25 5.390625 -1.25l67.4375 0q54.625 0 73.65625 28.96875q6.625 12.0 6.625 30.421875q0 18.40625 -12.0 31.234375q-12.0 12.828125 -34.34375 17.375l0 1.25q21.515625 3.71875 30.625 16.140625q7.03125 10.34375 8.890625 27.71875q1.859375 17.375 3.109375 27.3125q1.234375 14.484375 2.46875 31.859375q0 7.03125 -4.34375 10.34375q-4.34375 3.3125 -9.71875 3.3125q-5.375 0 -9.515625 -3.09375q-4.140625 -3.109375 -4.96875 -9.3125q-1.65625 -19.046875 -2.90625 -33.734375q-1.234375 -14.6875 -2.890625 -24.828125q-1.65625 -10.140625 -4.546875 -16.75q-2.890625 -6.625 -7.859375 -10.34375q-8.28125 -6.21875 -32.6875 -7.046875l-53.375 0l0 91.453125q0 9.9375 -8.703125 12.828125q-2.484375 0.828125 -6.421875 0.828125q-3.921875 0 -8.46875 -3.3125q-4.546875 -3.3125 -4.546875 -10.34375l0 -198.20312zm69.515625 85.234375q39.3125 0 52.96875 -12.40625q9.921875 -8.6875 10.75 -26.078125q0 -24.40625 -18.203125 -32.265625q-9.9375 -4.96875 -19.875 -5.59375q-9.921875 -0.625 -15.71875 -0.625l-51.296875 0l0 76.96875l41.375 0z" fill-rule="nonzero"/></g></svg>